<svg xmlns="http://www.w3.org/2000/svg" viewBox="0 0 177.85 141.51"><g id="a67ba4ed-af32-4078-acab-7f9057eb6d68" data-name="圖層 2"><g id="a91986e4-6bc8-4a8e-b43e-ec67df933006" data-name="Objects"><path d="M71.87,88.22l3.83-9.29L81.15,66,85,75.1,79.74,88.22,75.9,97.5,57.53,141.31H43.6L0,0H21.6L52.08,99.32,55.92,111l-3.84,9.49H50.87l-3.23-10.9L16.15,7.07H9.89L18,34.12l29.47,94.67,1.62,5.45h3.63ZM35.73,0,60.16,80.75l21.4-49.26,47.84,110h-7.87l-40-91.65L59.35,103,28.06,0Zm90.64,52.28L142.12,0h35.73l-42.6,139.69-1.81-4L88.22,30.89,81.76,16.15,61,64.2,57.74,53.5,79.13,3.84h5.25L134,118.5l11.71-38.15,20.59-67.43,1.82-5.85H147.57l-17,55.31Zm26-39.76h7.67L133,100.73,91,3.84h7.88l28.66,66,4.24,10.09Z" fill="#fff"/></g></g></svg>